<svg xmlns="http://www.w3.org/2000/svg" width="140.643" height="30.502" viewBox="0 0 140.643 30.502"><defs><style>.a{fill:#004833;}.a,.b,.c{fill-rule:evenodd;}.b,.c,.d{fill:none;stroke-linecap:round;stroke-linejoin:round;stroke-width:1.267px;}.b,.d{stroke:#00703c;}.c{stroke:#fcad10;}</style></defs><g transform="translate(0.643 0.633)"><path class="a" d="M78.981,18.765,76.118,29.219c-.327,1.217-.852,1.447-1.485,1.447-.612,0-1.2-.23-1.53-1.447L70.241,18.765a.594.594,0,0,1-.022-.184.349.349,0,0,1,.349-.391h.219c.153,0,.306.092.393.413l2.8,10.362c.2.688.416.827.656.827s.416-.139.612-.827l2.8-10.362c.088-.321.24-.413.393-.413H78.7c.218,0,.306.138.306.345a.815.815,0,0,1-.022.23" transform="translate(-18.946 -5.254)"/><path class="a" d="M86.365,28.8h-.131a.442.442,0,0,1-.416-.437V16.9a.442.442,0,0,1,.416-.437h.131a.442.442,0,0,1,.415.437V28.36a.442.442,0,0,1-.415.437m0-14.612h-.131a.426.426,0,0,1-.416-.437v-1.7a.441.441,0,0,1,.416-.436h.131a.441.441,0,0,1,.415.436v1.7a.426.426,0,0,1-.415.437" transform="translate(-23.051 -3.522)"/><path class="a" d="M98.206,23.985H96.523c-3.3,0-4.435.69-4.435,2.642v.3c0,2.137,1.071,2.8,2.381,2.8a7.208,7.208,0,0,0,3.737-1.172Zm.524,6.5h-.109a.45.45,0,0,1-.437-.46v-.574a7.592,7.592,0,0,1-3.714,1.172c-1.639,0-3.343-.827-3.343-3.7v-.3c0-2.367,1.42-3.538,5.4-3.538h1.683v-.827c0-2.39-.634-3.331-2.754-3.331a22.591,22.591,0,0,0-3.1.206h-.087c-.2,0-.416-.091-.416-.345v-.137c0-.253.175-.368.5-.414a21.369,21.369,0,0,1,3.1-.206c2.95,0,3.715,1.746,3.715,4.227v7.765a.45.45,0,0,1-.438.46Z" transform="translate(-24.448 -5.213)"/><path class="a" d="M116.285,17.878l-2.914,10.454a3,3,0,0,1-5.758,0L104.7,17.878a.394.394,0,0,1-.023-.161.363.363,0,0,1,.37-.367h2.313c.208,0,.393.161.463.459l2.219,9.627c.093.436.255.574.44.574s.347-.138.439-.574l2.22-9.627a.53.53,0,0,1,.486-.459h2.312a.363.363,0,0,1,.37.367.394.394,0,0,1-.023.161" transform="translate(-28.013 -5.032)"/><path class="a" d="M129.172,24.552h-1.441c-2.081,0-2.538.666-2.538,1.953V26.6c0,1.126.5,1.425,1.646,1.425a4.994,4.994,0,0,0,2.332-.643Zm2.561,5.7h-1.944a.46.46,0,0,1-.458-.46v-.368a6.173,6.173,0,0,1-3.224,1.011c-1.9,0-3.955-.735-3.955-3.837V26.5c0-2.619,1.6-3.975,5.579-3.975h1.441V21.519c0-1.494-.662-1.861-2.012-1.861a36.108,36.108,0,0,0-3.728.183h-.114c-.228,0-.411-.068-.411-.39V17.98c0-.253.137-.413.434-.482a19.665,19.665,0,0,1,3.819-.368c3.247,0,5.03,1.448,5.03,4.388v8.27a.46.46,0,0,1-.457.46Z" transform="translate(-32.612 -4.975)"/><path class="a" d="M145.58,19.7a6,6,0,0,0-3.027.827v9.236a.472.472,0,0,1-.438.483H140.1a.472.472,0,0,1-.439-.483V17.751a.451.451,0,0,1,.439-.459H142a.451.451,0,0,1,.439.459v.483a4.944,4.944,0,0,1,3.136-1.1.45.45,0,0,1,.438.46v1.654a.45.45,0,0,1-.438.459" transform="translate(-37.219 -4.975)"/><path class="a" d="M158.165,22.576c0-1.792-.988-2.826-2.413-2.826s-2.46,1.01-2.46,2.826v.092h4.873Zm2.6,2.252h-7.494V24.9c0,1.334.552,2.919,2.759,2.919,1.678,0,3.264-.138,4.229-.23h.069c.23,0,.413.115.413.345v1.516c0,.368-.069.529-.483.6a20.462,20.462,0,0,1-4.459.391c-2.3,0-5.562-1.24-5.562-5.767v-1.7c0-3.584,2-5.836,5.517-5.836,3.54,0,5.47,2.412,5.47,5.836v1.286c0,.368-.138.575-.46.575Z" transform="translate(-40.002 -4.975)"/><path class="a" d="M170.178,13.96h-2.105a.45.45,0,0,1-.439-.459V11.479a.451.451,0,0,1,.439-.46h2.105a.469.469,0,0,1,.461.46V13.5a.469.469,0,0,1-.461.459m-2.851,19.275a8,8,0,0,1-1.448-.138c-.285-.046-.416-.183-.416-.413V31.191c0-.229.175-.367.461-.367h.987c.7,0,.768-.3.768-1.219V16.143a.45.45,0,0,1,.438-.459h2.018a.45.45,0,0,1,.439.459V29.6c0,2.8-1.207,3.63-3.247,3.63" transform="translate(-44.01 -3.366)"/><path class="a" d="M183.611,22.851c0-1.884-.858-3.1-2.482-3.1s-2.482,1.217-2.482,3.1v1.861c0,1.884.858,3.1,2.482,3.1s2.482-1.218,2.482-3.1Zm-2.482,7.581c-3.642,0-5.544-2.435-5.544-5.721V22.851c0-3.286,1.9-5.721,5.544-5.721s5.544,2.435,5.544,5.721v1.861c0,3.286-1.9,5.721-5.544,5.721Z" transform="translate(-46.674 -4.975)"/><path class="b" d="M.634,20.417a10.3,10.3,0,0,0,6.828-3.5c3.151-3.443,4.669-5.078,6.944-5.078s3.91,1.985,4.786,3.094,4.143,6.127,5.077,7.236A5.029,5.029,0,0,0,28,24.093c1.459,0,2.9-.33,4.435-2.625S41.075,7.228,42.418,5.185,46.036.633,49.712.633H60.691" transform="translate(-0.634 -0.633)"/><path class="c" d="M.634,20.475H6.489a6,6,0,0,0,5.058-2.334c1.925-2.218,3.317-3.842,3.89-4.415a5.912,5.912,0,0,1,4.339-1.858c2.664,0,4.423,1.866,5.631,3.706.752,1.145,3.395,5.6,4.2,6.856s3.122,4.348,6.332,4.348c3.414,0,5.369-2.9,6.156-3.939S52.514,6.5,53.739,4.6A8.518,8.518,0,0,1,60.691.633" transform="translate(-0.634 -0.633)"/><path class="b" d="M30.442,28.095a5.03,5.03,0,0,1-3.735-1.925c-.934-1.109-4.2-6.128-5.077-7.237s-2.51-3.093-4.786-3.093S13.051,17.474,9.9,20.917" transform="translate(-3.072 -4.635)"/><line class="d" x2="10.978" transform="translate(49.079 0)"/></g></svg>