<svg xmlns="http://www.w3.org/2000/svg" width="141.258" height="30.633" viewBox="0 0 141.258 30.633"><defs><style>.a{fill:#fff;}.a,.b{fill-rule:evenodd;}.b{fill:none;stroke:#fff;stroke-linecap:round;stroke-linejoin:round;stroke-width:1.267px;}</style></defs><g transform="translate(0.643 0.633)"><g transform="translate(0 0)"><g transform="translate(0 0)"><path class="a" d="M79.019,18.768l-2.875,10.5c-.329,1.223-.856,1.454-1.492,1.454-.614,0-1.207-.231-1.536-1.454l-2.874-10.5a.6.6,0,0,1-.022-.185.35.35,0,0,1,.351-.392h.22c.153,0,.307.093.4.415l2.809,10.408c.2.691.417.83.659.83s.417-.139.614-.83l2.809-10.408c.088-.323.241-.415.4-.415h.263c.219,0,.307.138.307.346a.818.818,0,0,1-.022.231" transform="translate(-18.72 -5.197)"/><path class="a" d="M86.367,28.872h-.132a.444.444,0,0,1-.417-.439V16.919a.444.444,0,0,1,.417-.439h.132a.444.444,0,0,1,.417.439V28.434a.444.444,0,0,1-.417.439m0-14.676h-.132a.428.428,0,0,1-.417-.439V12.051a.443.443,0,0,1,.417-.438h.132a.443.443,0,0,1,.417.438v1.707a.428.428,0,0,1-.417.439" transform="translate(-22.775 -3.487)"/><path class="a" d="M98.237,24.011h-1.69c-3.313,0-4.455.693-4.455,2.654v.3c0,2.146,1.075,2.815,2.392,2.815A7.24,7.24,0,0,0,98.237,28.6Zm.526,6.53h-.11a.452.452,0,0,1-.439-.462V29.5a7.625,7.625,0,0,1-3.731,1.177c-1.646,0-3.358-.831-3.358-3.716v-.3c0-2.377,1.426-3.554,5.42-3.554h1.69v-.83c0-2.4-.636-3.346-2.766-3.346a22.691,22.691,0,0,0-3.116.207h-.087c-.2,0-.417-.092-.417-.346v-.138c0-.254.176-.369.5-.416a21.463,21.463,0,0,1,3.116-.207c2.963,0,3.731,1.753,3.731,4.246v7.8a.452.452,0,0,1-.44.462Z" transform="translate(-24.155 -5.156)"/><path class="a" d="M116.336,17.88l-2.927,10.5a3.013,3.013,0,0,1-5.784,0L104.7,17.88a.4.4,0,0,1-.023-.162.365.365,0,0,1,.372-.369h2.323c.209,0,.394.161.465.461l2.229,9.669c.093.438.256.577.442.577s.349-.138.441-.577l2.23-9.669a.533.533,0,0,1,.488-.461h2.322a.365.365,0,0,1,.372.369.4.4,0,0,1-.023.162" transform="translate(-27.676 -4.978)"/><path class="a" d="M129.2,24.584h-1.447c-2.09,0-2.549.669-2.549,1.961v.092c0,1.131.505,1.431,1.653,1.431a5.016,5.016,0,0,0,2.342-.646Zm2.573,5.722h-1.952a.462.462,0,0,1-.46-.462v-.369a6.2,6.2,0,0,1-3.238,1.015c-1.906,0-3.973-.739-3.973-3.854v-.092c0-2.63,1.607-3.992,5.6-3.992H129.2V21.538c0-1.5-.665-1.869-2.02-1.869a36.266,36.266,0,0,0-3.744.184h-.115c-.229,0-.413-.068-.413-.392V17.984c0-.254.138-.415.436-.484a19.751,19.751,0,0,1,3.836-.369c3.261,0,5.052,1.454,5.052,4.407v8.307a.462.462,0,0,1-.459.462Z" transform="translate(-32.219 -4.921)"/><path class="a" d="M145.606,19.715a6.029,6.029,0,0,0-3.04.83v9.276a.474.474,0,0,1-.44.485H140.1a.474.474,0,0,1-.441-.485V17.754a.452.452,0,0,1,.441-.461h1.916a.452.452,0,0,1,.441.461v.485a4.965,4.965,0,0,1,3.15-1.108.452.452,0,0,1,.44.462v1.661a.452.452,0,0,1-.44.461" transform="translate(-36.769 -4.921)"/><path class="a" d="M158.2,22.6c0-1.8-.992-2.838-2.424-2.838s-2.47,1.015-2.47,2.838v.093H158.2Zm2.609,2.262h-7.527v.068c0,1.34.554,2.931,2.771,2.931,1.685,0,3.279-.138,4.248-.231h.07c.231,0,.415.115.415.346V29.5c0,.369-.07.531-.485.6a20.551,20.551,0,0,1-4.479.392c-2.309,0-5.587-1.246-5.587-5.792V22.992c0-3.6,2.009-5.861,5.541-5.861,3.555,0,5.494,2.423,5.494,5.861v1.291c0,.369-.138.578-.462.578Z" transform="translate(-39.518 -4.921)"/><path class="a" d="M170.2,13.973h-2.114a.452.452,0,0,1-.441-.461V11.481a.453.453,0,0,1,.441-.462H170.2a.471.471,0,0,1,.463.462v2.031a.471.471,0,0,1-.463.461m-2.863,19.36a8.031,8.031,0,0,1-1.454-.138c-.286-.046-.418-.184-.418-.415v-1.5c0-.23.176-.369.463-.369h.991c.705,0,.771-.3.771-1.224V16.165a.452.452,0,0,1,.44-.461h2.027a.452.452,0,0,1,.441.461V29.686c0,2.816-1.212,3.646-3.261,3.646" transform="translate(-43.477 -3.333)"/><path class="a" d="M183.647,22.876c0-1.892-.862-3.115-2.493-3.115s-2.493,1.223-2.493,3.115v1.869c0,1.892.862,3.116,2.493,3.116s2.493-1.223,2.493-3.116Zm-2.493,7.615c-3.658,0-5.568-2.446-5.568-5.746V22.876c0-3.3,1.91-5.746,5.568-5.746s5.568,2.446,5.568,5.746v1.869c0,3.3-1.911,5.746-5.568,5.746Z" transform="translate(-46.108 -4.921)"/><path class="b" d="M.634,20.5a10.346,10.346,0,0,0,6.858-3.517c3.165-3.458,4.689-5.1,6.974-5.1s3.928,1.994,4.807,3.108,4.161,6.154,5.1,7.268A5.051,5.051,0,0,0,28.124,24.2c1.465,0,2.911-.332,4.455-2.637S41.253,7.257,42.6,5.205,46.235.633,49.928.633H60.954" transform="translate(-0.634 -0.633)"/><path class="b" d="M.634,20.562H6.514a6.024,6.024,0,0,0,5.081-2.345c1.934-2.228,3.331-3.859,3.907-4.435a5.938,5.938,0,0,1,4.358-1.866c2.676,0,4.442,1.874,5.656,3.723.756,1.15,3.41,5.626,4.221,6.886s3.136,4.367,6.359,4.367c3.429,0,5.392-2.911,6.183-3.956S52.742,6.524,53.972,4.619A8.555,8.555,0,0,1,60.954.633" transform="translate(-0.634 -0.633)"/></g></g></g></svg>